<mxfile host="app.diagrams.net" modified="2022-04-20T11:59:38.639Z" agent="5.0 (Windows NT 10.0; Win64; x64) AppleWebKit/537.36 (KHTML, like Gecko) Chrome/100.0.4896.88 Safari/537.36" etag="aIghoNKjUyYbmTlHimmh" version="17.4.5" type="github">
  <diagram id="C5RBs43oDa-KdzZeNtuy" name="Page-1">
    <mxGraphModel dx="1038" dy="539" grid="1" gridSize="10" guides="1" tooltips="1" connect="1" arrows="1" fold="1" page="1" pageScale="1" pageWidth="827" pageHeight="1169" math="0" shadow="0">
      <root>
        <mxCell id="WIyWlLk6GJQsqaUBKTNV-0" />
        <mxCell id="WIyWlLk6GJQsqaUBKTNV-1" parent="WIyWlLk6GJQsqaUBKTNV-0" />
        <mxCell id="rei4ZuZcRmIIKOCISxv2-2" value="" style="edgeStyle=orthogonalEdgeStyle;rounded=0;orthogonalLoop=1;jettySize=auto;html=1;" edge="1" parent="WIyWlLk6GJQsqaUBKTNV-1" source="rei4ZuZcRmIIKOCISxv2-0" target="rei4ZuZcRmIIKOCISxv2-1">
          <mxGeometry relative="1" as="geometry" />
        </mxCell>
        <mxCell id="rei4ZuZcRmIIKOCISxv2-0" value="&lt;font style=&quot;vertical-align: inherit&quot;&gt;&lt;font style=&quot;vertical-align: inherit&quot;&gt;старт&lt;/font&gt;&lt;/font&gt;" style="ellipse;whiteSpace=wrap;html=1;" vertex="1" parent="WIyWlLk6GJQsqaUBKTNV-1">
          <mxGeometry x="330" y="20" width="80" height="50" as="geometry" />
        </mxCell>
        <mxCell id="rei4ZuZcRmIIKOCISxv2-4" value="" style="edgeStyle=orthogonalEdgeStyle;rounded=0;orthogonalLoop=1;jettySize=auto;html=1;" edge="1" parent="WIyWlLk6GJQsqaUBKTNV-1" source="rei4ZuZcRmIIKOCISxv2-1" target="rei4ZuZcRmIIKOCISxv2-3">
          <mxGeometry relative="1" as="geometry" />
        </mxCell>
        <mxCell id="rei4ZuZcRmIIKOCISxv2-1" value="&lt;font style=&quot;vertical-align: inherit&quot;&gt;&lt;font style=&quot;vertical-align: inherit&quot;&gt;&lt;br&gt;a=3&lt;br&gt;b=6&lt;br&gt;c=4&lt;br&gt;d=11&lt;br&gt;&lt;br&gt;&lt;/font&gt;&lt;/font&gt;" style="rounded=1;whiteSpace=wrap;html=1;" vertex="1" parent="WIyWlLk6GJQsqaUBKTNV-1">
          <mxGeometry x="315" y="100" width="110" height="80" as="geometry" />
        </mxCell>
        <mxCell id="rei4ZuZcRmIIKOCISxv2-6" value="" style="edgeStyle=orthogonalEdgeStyle;rounded=0;orthogonalLoop=1;jettySize=auto;html=1;" edge="1" parent="WIyWlLk6GJQsqaUBKTNV-1" source="rei4ZuZcRmIIKOCISxv2-3" target="rei4ZuZcRmIIKOCISxv2-5">
          <mxGeometry relative="1" as="geometry" />
        </mxCell>
        <mxCell id="rei4ZuZcRmIIKOCISxv2-3" value="print=(a+b+c+d)/4" style="rounded=0;whiteSpace=wrap;html=1;" vertex="1" parent="WIyWlLk6GJQsqaUBKTNV-1">
          <mxGeometry x="310" y="220" width="120" height="60" as="geometry" />
        </mxCell>
        <mxCell id="rei4ZuZcRmIIKOCISxv2-5" value="print=6" style="shape=document;whiteSpace=wrap;html=1;boundedLbl=1;" vertex="1" parent="WIyWlLk6GJQsqaUBKTNV-1">
          <mxGeometry x="310" y="320" width="120" height="80" as="geometry" />
        </mxCell>
      </root>
    </mxGraphModel>
  </diagram>
</mxfile>
